<?xml version="1.0" encoding="utf-8"?>
<!-- Generator: Adobe Illustrator 28.0.0, SVG Export Plug-In . SVG Version: 6.00 Build 0)  -->
<svg version="1.1"
	 id="svg23" xmlns:inkscape="http://www.inkscape.org/namespaces/inkscape" xmlns:svg="http://www.w3.org/2000/svg" xmlns:sodipodi="http://sodipodi.sourceforge.net/DTD/sodipodi-0.dtd"
	 xmlns="http://www.w3.org/2000/svg" xmlns:xlink="http://www.w3.org/1999/xlink" x="0px" y="0px" viewBox="0 0 308.8 304.9"
	 style="enable-background:new 0 0 308.8 304.9;" xml:space="preserve">
<style type="text/css">
	.st0{display:none;}
	.st1{display:inline;}
	.st2{fill:#FF4A3F;}
	.st3{display:inline;fill:#2B00FF;}
	.st4{fill:#F1F8D1;}
	.st5{fill:#D3DCB6;}
	.st6{fill:#45A6AF;stroke:#7C434F;stroke-width:3.0234;stroke-miterlimit:10;}
	.st7{fill:#7C434F;}
	.st8{fill:#8D615F;}
	.st9{opacity:0.5;}
	.st10{fill:#EB5C48;stroke:#7C434F;stroke-width:3.0234;stroke-miterlimit:10;}
	.st11{fill:#52C9BB;}
	.st12{fill:#EB5C48;}
</style>
<sodipodi:namedview  bordercolor="#000000" borderopacity="0.25" id="namedview25" inkscape:deskcolor="#d1d1d1" inkscape:pagecheckerboard="0" inkscape:pageopacity="0.0" inkscape:showpageshadow="2" pagecolor="#ffffff">
	</sodipodi:namedview>
<g id="SvgjsG2685" transform="matrix(0.9820592540669653,0,0,0.9820592540669653,-0.054560523427421584,0)" class="st0">
	<g id="g17" class="st1">
		<path id="path3" class="st2" d="M57.6,44.6H59L57.9,44L57.6,44.6z M61.4,42.8c0,0.3,0,0.3,0.3,0.3l1.2-0.9
			C62.2,41.9,61.9,41.9,61.4,42.8z M50,50.7l0.9-0.6c0.3-0.3,0.3-0.6,0.3-0.6h-0.6L50,50.7C49.7,50.4,49.7,50.7,50,50.7z M56.4,42.2
			h-0.3l-0.6,0.6h0.9L56.4,42.2z M50.3,49.2l1.7-1.5c0.3-0.3,0.3-0.6,0.3-0.9h-0.9L48,50.1l-0.6,1.2l2-1.7L50.3,49.2z"/>
		<path id="path5" class="st2" d="M28.1,72.8v-0.6c0.2-1.3,1-2.4,2-3.2l2.6-1.7l1.5-1.7l2-2l1.2-1.2l1.2-0.9c1-0.6,1.9-1.5,2.3-2.6
			l1.2-1.5c1.1-1.1,2.1-2.4,2.9-3.8l0.6-0.9l0.9-0.6l-0.6-0.9l1.2-1.5c2.3-1.7,4.1-4.1,6.4-5.8l0.9-0.9c0.3-0.7,0.8-1.3,1.5-1.7
			l2.3-1.2h1.2c0.9-0.3,1.6-1,2-1.7v-0.6c0.9-1.7,2.2-3.1,3.8-4.1l2.3-1.5l0.6-0.6l1.2-1.2l2.9-1.5h0.6l-3.2,1.2L65.5,33
			c-1.7,1.5-4.1,1.7-5.2,4.1h0.9c-2,0.6-4.1,1.5-5,3.5c-0.9,2-2.3,1.7-3.5,2.6c-0.5,0.1-0.9,0.6-0.9,1.2c-2.3-0.3-3.2,1.5-4.4,2.6
			v2.3c-1.9,0.9-3.5,2.3-4.7,4.1C38,53.9,38,59.7,34,60.9h-0.3c-0.1,0.2-0.1,0.4,0,0.6c-0.9,0-1.5,0.6-1.2,1.5l-0.6,1.5
			c-2,1.2-1.7,3.2-2.9,5c-2.3,1.5-3.2,4.4-5,6.4l0.9,1.5l0.6-0.6C26.3,75.3,27.2,74,28.1,72.8z M156.9,9.6l1.7,0.6h0.6
			c1.3,0.6,2.7,0.8,4.1,0.6c1.8-0.3,3.7-0.2,5.5,0.3h3.5c1.2-0.3,2.5,0.1,3.5,0.9c0.1,0.1,0.1,0.2,0,0.3h-1.2
			c-0.1,0.1-0.1,0.2,0,0.3h2c1.2-0.5,2.6-0.5,3.8,0c0.6,0,0.3,0.3,0.6,0.6l1.5,0.6h-0.6c-0.6-1.2-1.5-1.2-2.3-1.2
			c-3.9-1.8-8.2-2.7-12.5-2.6h-2.3c-3.4-1-6.9-1.4-10.5-1.2h0.6L156.9,9.6z M178.1,18.6h0.6H178.1z M200,20.1c0.8,0.8,1.9,1,2.9,0.6
			h1.7c-1.5-1.2-3.3-1.9-5.2-2l-2-0.6l1.5,0.9L200,20.1z M190.1,16.3c0,0.3,0.3,0.6,0.6,0.9h0.6l1.5-0.9c-1.5-0.9-3.2-1.5-5-1.7
			l2,1.2L190.1,16.3z M211.6,24.2l2.3,1.5C213.4,24.8,212.8,24.2,211.6,24.2z"/>
		<path id="path7" class="st2" d="M288.2,221.7l1.7-4.7l1.7-4.4c0.6-1.5,1.7-5.2,2.3-7.6c0.1-0.7,0.4-1.4,0.9-2h0.3v-3.2
			c1.5-0.3,1.2-1.7,1.5-2.6l2.3-13.7c1.5-5.9,1.5-12.1,0-18.1c0.3-1.7-0.3-3.4-1.5-4.7v-12.5c-0.9-2.6,0.9-5.5-1.2-7.9l-2.3-9.3
			c0-0.2,0-0.4,0-0.6l-0.6-1.7c-0.2-0.4-0.2-0.8,0-1.2h0.3c0.9,0,0.9-1.5,0.9-2.6c-0.2-1.1-0.6-2.2-1.2-3.2l-0.9-1.2
			c-0.4-0.6-0.6-1.3-0.6-2c0.1-2-0.1-3.9-0.6-5.8V111c-0.6-2-1.2-4.4-1.7-6.4l-0.6-1.5c-0.6-1-1-2.1-1.2-3.2
			c-0.2-0.8-0.5-1.6-0.9-2.3l-1.7-2.9c-0.5-0.4-1.1-0.6-1.7-0.6h-0.3v-0.9h-0.6v-2.3h-0.3v-0.6c0-0.1,0-0.2,0-0.3v-0.6
			c0.3-0.6,0.3-0.9-0.3-1.5c-0.5-0.5-0.9-1.1-1.2-1.7l-0.6-1.7c-0.4-1.3-1.1-2.5-2-3.5c-0.6-0.6-1.1-1.3-1.5-2l-2-4.7
			c-0.4-1-1-2-1.7-2.9l-1.7-2.3c-0.5-0.7-0.9-1.5-1.2-2.3l-0.6-0.9c-0.3-0.4-0.4-1-0.3-1.5c0-0.5-0.2-0.9-0.6-1.2l-1.2-0.9v0.6
			c0.3,0.6,0,0.9-0.3,0.9h-0.6l0.9,2.9l0.9,1.5l2,2.6h-0.3l-0.6-0.6l-0.6-0.6c-0.3-1.8-1.7-3.1-3.5-3.2v-2c-0.9-3.5-4.7-3.8-6.4-6.1
			c-0.6-1.4-1.8-2.3-3.2-2.6l-2.3-2.6c-2.4-3.5-5.5-6.4-9-8.7l-2.3-1.7l-1.2-0.9c-2-2-2.9-5.2-6.4-5.2l-2.3-1.5l-2.6-2
			c-0.9-2.1-2.9-3.6-5.2-3.8c-1.9-1.7-4.2-2.9-6.7-3.5l0.6,0.6l1.5,1.2l3.8,2c2.3,1.2,4.3,2.8,6.1,4.7c1.3,1.3,2.8,2.3,4.4,3.2
			l1.7,1.5c0.3,0.3,0.6,0.6,0.3,0.9h-0.3l-2.6-0.9c-2.1-0.4-4.1-1.2-5.8-2.3l-3.5-1.7l-3.8-2h-0.6c-0.9-0.3-1.2-1.2-2.3-1.5
			l-2.3-0.6l-7.3-1.5c-1-0.5-1.9-1.2-2.6-2c-0.9,0-1.8-0.3-2.6-0.9l-2.9-1.2c-2.8-0.6-5.5-1.3-8.2-2.3l-1.7-0.6l-2.9-0.9h-1.5
			l-0.6-0.9v-0.3h-4.7l-1.7-1.5l-1.2,0.6l-1.2,0.6h-0.6l-2.6-1.5c-1.7,1.7-3.2-0.6-4.7-0.3l-2.9-0.9c-1.1,0.6-2.4,0.6-3.5,0H158
			c-0.9-0.1-1.5-0.9-1.5-1.7l0.9-0.6h1.7c0.2,0.3,0.3,0.6,0.3,0.9c0,0.6,0.6,0.6,1.5,0.6h0.6l-1.2-1.7c-0.8-0.7-1.9-0.9-2.9-0.6
			l-2.9,0.9h-0.3c0.9,0.6,0.6,0.9,0.6,1.5h-4.7l-1.2-0.6l-2.3-1.2h-0.3l-2-0.6h-6.7l1.2-0.6l2.3-0.6h0.9l5-0.9l3.2-0.6l1.7-0.6h-3.2
			c-3.3-0.7-6.6-0.7-9.9,0H135l-9.9-0.3c-4.1,0.3-8.2,0-11.4,3.5c-7.3-1.2-13.7,2-20.1,5.2l-6.4,2.6c-4.1,0.6-7.8,2.4-10.8,5.2h0.9
			l1.5-0.9l2.3-1.5l3.8-1.7l2.9-0.6c1.8-1.2,3.7-2.1,5.8-2.6l2.6-0.9h0.6c0.3,0.6,1.5,0,2,0h0.6c0.3,0,0.3,0.3,0,0.3l-1.7,1.2
			l2.9-0.9l2.3-0.6l-3.8,2l-3.8,1.2c-0.8,0.2-1.4,0.8-1.7,1.5L92.8,25h0.9l1.2-0.6c0.6-0.9,1.5-1.5,2.6-1.7l4.4-1.5h1.5
			c0.2-0.1,0.4,0,0.4,0.1c0.1,0.2,0,0.4-0.1,0.4l0,0c-0.6,0.6-1.7,0.9-2.3,1.5h0.6l-9.3,2.6l-11.1,4.7c-1.9,1.7-4.2,2.9-6.7,3.5
			c-1.5,1.3-3.1,2.4-5,3.2l-2.3,0.6c-0.7,1.5-2.1,2.5-3.8,2.6l-0.9,1.5c-0.9,1.3-2.1,2.4-3.5,3.2H59v-0.3l-0.6,0.6L57.9,46L55,46.6
			h-1.5l-1.2,1.5c-0.3,0.3-0.3,0.6,0,0.6h0.3c-1.7,1.7-2.9,4.1-5.2,5L43.6,58c-1.7,3.5-5.2,4.7-7.6,7.6c-2.3,2.9-4.1,11.4-11.4,12.5
			L24,77.2l-0.6,1.5c-0.3,0.8-0.6,1.6-1.2,2.3c-1.3,2-2.5,4-3.5,6.1c-0.3,0.4-0.4,1-0.3,1.5c0,0.8-0.2,1.6-0.6,2.3l-1.5,3.2h0.6
			c0.9,0,0.9,0.9,1.2,1.7l2.3-3.2c0.4-0.8,1-1.5,1.7-2c1.1-0.6,2.1-1.5,2.6-2.6l0.9-0.9l1.2-1.2l1.7-3.2h0.6c0.3,0.3,0.3,0.3,0.6,0
			l0.6-1.2h1.5v2.3l1.5-1.5c0.3-0.5,0.3-1,0-1.5c0-0.3,0.1-0.6,0.3-0.9c0.4-0.4,0.7-0.9,0.9-1.5c0.3-1.2,1.2-2.2,2.3-2.6l0.9-0.6
			l0.9-0.9c1-0.7,1.8-1.7,2.3-2.9l-0.6-0.9c0-0.3,0.3-0.9,0.6-1.2h1.5l1.7-2.3l1.7-0.9h0.6c-6,6.5-11.3,13.5-16,21h-0.3h0.3
			C24,97.5,18.8,108.5,15,120h-1.5l-1.5-1.2c-0.6-0.6-0.3-2-1.2-2.6h0.3c0.9-1.5-0.3-3.5,0.9-5s0.3-4.1-2.6-3.5s-4.4,1.5-3.8,4.4
			s-2.9,5.2-3.2,8.4s-1.5,1.5-0.9,2.6v11.4c0.3,2.3-1.5,5.2,2.3,6.1l3.8,2.6c0.3,1.5-1.5,4.7,2.6,3.8c-0.5,4.8-0.8,9.7-0.9,14.6
			c0,3.2,0.3,6.4,0.3,9.6V170c-0.3-1.2-0.3-2.3-0.6-3.8l-0.9,0.9v-0.6H6.9c0,1.5-0.3,2.3-1.2,2.6c-0.2,0.4-0.3,1-0.3,1.5
			c0,0.3,0.3,0.9,0.6,0.6c0.3-0.3,1.2,0.6,2,1.2c0.9,0.6-0.6,0.9-1.2,0.6s-0.6,0.3-0.6,0.9v0.9l1.5,4.4c0,0.9-0.3,1.7-0.3,2.6
			c0,0.8,0.2,1.6,0.6,2.3H7.2v-0.9l-2-0.6v-1.7c0.1-0.5,0.1-1,0-1.5c-0.4-1.7-0.7-3.5-0.9-5.2c-0.6-3.4-0.7-6.8-0.6-10.2
			c0-0.5,0.1-1,0.3-1.5v0.6c0.1,0.5,0.2,1,0.3,1.5c0,0.4,0.1,0.8,0.3,1.2c0.3,0.6,0.6,1.2,1.2,1.2s0.3-0.3,0.3-0.6
			c0-0.5-0.1-1-0.3-1.5c-0.5-1.2-0.8-2.5-0.9-3.8c-0.1-0.7-0.4-1.4-0.9-2c-0.4-0.8-0.6-1.7-0.6-2.6v-2.3c0-0.9,0.3-1.7,0.3-2.6
			c0.1-0.4,0-0.8-0.3-1.2H3.1c-2.3,1.2-2,0.6-2.9,4.7v5.2c0,2-0.3,4.1,0,6.1c0,2.2,0.1,4.5,0.6,6.7c0.1,0.5,0.1,1,0,1.5
			c0,0.9,0.1,1.8,0.3,2.6c0.2,1.2,0.3,2.5,0.3,3.8c-0.2,1.7,0,3.4,0.6,5c0.1,0.4,0.1,0.8,0,1.2c-0.1,0.8,0,1.6,0.3,2.3
			c0.3,0.9,0.5,1.7,0.6,2.6c0.3,2.2,0.8,4.3,1.5,6.4c0.3,0.9,0.5,1.9,0.6,2.9c0.1,0.7,0.4,1.4,0.9,2c0.7,1,1.2,2.2,1.5,3.5
			c0.2,1,0.5,2,0.9,2.9l1.2,4.1c0.4,1.5,0.9,3,1.7,4.4c1,1.9,1.8,4,2.3,6.1l0.6,1.5c0.7,0.8,1.2,1.8,1.5,2.9
			c0.2,0.9,0.6,1.6,1.2,2.3c0.3,0.4,0.5,0.9,0.6,1.5c0.3,0.9,0.6,1.2,1.2,0.9h0.3v2.6l1.5,2.9l1.5,2.9l3.2,3.5l1.2,1.2
			c0.9,0.9,2,1.5,2.6,2.9l1.2,0.9c0.5,0.3,0.8,0.9,0.9,1.5l0.6,2c0.4,1,1,1.8,1.7,2.6l1.2,0.6h0.9c0.3,0.1,0.5,0.4,0.4,0.7
			c0,0,0,0.1-0.1,0.1c0,0.5,0,1,0,1.5c0.2,0.6,0.6,1.1,1.2,1.5h0.6c1.2-0.3,2.3,0.6,3.5,2h0.3c0-0.3,0.3-0.3,0-0.6v-0.6
			c0-0.3,0.3-0.6,0.6-0.3c0.6,0.4,0.9,1.1,0.9,1.7v0.6c0.2,1.2,0.6,2.4,1.2,3.5c1.5,0.9,1.5,0.9,1.5,0.3s0-0.6,0.6-0.6h1.2l0.6,0.9
			l2.3,1.5c2,2.3,5.2,2,7.6,3.5l5,5h0.6c0.9,2.1,2.5,3.8,4.7,4.7c0.6,1,1.7,1.7,2.9,1.7c0,1.5,1.7,1.7,3.2,2
			c0.6,0.7,1.4,1.1,2.3,1.2h0.6c1.1,1.2,2.8,1.7,4.4,1.5l2.6,2.3l7,2.6v0.6c1.5,3.2,5,2,7.3,2.9l3.2,1.2h1.2c3.5,0.9,7,2.6,10.8,1.5
			c-0.1,0.4-0.1,0.8,0,1.2c3.2,2,7,0,10.5,1.2c1.6,0.6,3.3,0.7,5,0.3h0.3l2.3,0.6h0.9l2.6,0.6h0.9c0.5-0.3,1-0.3,1.5,0
			c1.4,0.5,2.9,0.9,4.4,1.2h1.7c0.6-0.4,1.4-0.4,2,0H156c1.6,0.2,3.1,0.1,4.7-0.3h2.9l1.5-0.6h9.6l1.7-0.6l1.5-0.9h6.4v1.7h-3.8
			L177,305c-1.2,0.3-2,0-2.9,0.3c-0.9,0.4-1.9,0.6-2.9,0.6l-3.8,0.9h-1.2c-1.5-0.3-3-0.2-4.4,0.3h-5.2c-0.8,0.4-1.8,0.4-2.6,0h-13.1
			c-1.1-0.2-2.3,0.1-3.2,0.9h-0.9l-0.9-0.6v-0.9h-3.5c-1.2-0.5-2.5-0.8-3.8-0.9h-7.3l-2-0.6l-1.5-0.6l-6.1-1.2h-1.5l-1.5-0.6l-6.1-2
			l-4.1-1.2h-6.4c-0.3,0-0.3,0.3-0.3,0.6h0.6c3.8,1.5,7.6,2.6,11.4,4.4h0.9l2.6,0.6l4.1,1.2h3.8l1.7,0.6l2,0.9l5,0.9l3.2,0.6
			l3.2,0.6h2.3l2.3,0.6h9l2.9,0.6h6.7l2.9-0.6h6.4c1.2,0,1.7-0.3,2-0.9h2.9c0.9,0.1,1.7-0.2,2.3-0.9c-0.3,0.3,0,0.3,0.3,0.6h1.2
			v-0.6c0-0.3,0-0.3,0.6-0.6c0.6-0.3,1.7-0.3,2,0.3h1.2l0.9-0.6c0.6,0,0.6,0,0.6,0.3h2l1.5-0.6l2.3-1.2c0.3,0.9,1.2,1.2,3.8,0.6
			l3.8-1.2h3.5c2.6-0.3,5.8,0,7.9-2h0.6l1.2-0.9l3.2-0.9c2.1-0.4,4-1.2,5.8-2.3l1.2-0.6h0.3l2.6-1.7l1.2-0.6l1.5-0.6h1.2
			c1.2-0.3,1.2-0.3,1.5-1.2c0.3-0.9,0-0.3-0.6-0.3H221l1.2-1.5h0.6c0.9-0.3,1.5-0.6,2-0.3h0.6c1.3-0.4,2.3-1.4,2.6-2.6
			c0.9-1.2,3.2-0.6,3.8-2.3l12.5-9c3.2-0.3,4.1-3.2,6.4-5c2.3-1.7,6.7-3.2,8.7-6.4l2.6-1.2h0.3c1.5,0.4,3.1-0.5,3.5-2v1.2
			c2.3-1.2,5.2,0.9,7.6-1.5c2.3-2.3,0-7.9,2.9-11.1l2-1.5c2.2-3.8,3.7-7.9,4.4-12.2l0.6-0.6c0-0.9,0-2,1.2-2.6
			c1.1-0.8,1.3-2.4,0.6-3.5h-0.6c0.2-0.3,0.2-0.6,0-0.9c2,0,2.3-2,3.5-2.9v-4.1c0-0.2,0-0.4,0-0.6
			C288.1,223,288.2,222.3,288.2,221.7L288.2,221.7z"/>
		<path id="path9" class="st2" d="M76.8,27.1l-0.9,0.6l-1.2,0.9l1.5-0.6L76.8,27.1z M94.6,21.3h0.3l0.9-0.6h-1.2L94.6,21.3z
			 M87,24.2l-0.3,0.3H87V24.2z M26.7,76.3l-1.2,1.2h0.6C26.5,77.2,26.8,76.8,26.7,76.3z M35.4,66.1c0.4-0.5,0.7-1.1,0.9-1.7
			c-0.6,0.4-1.1,0.9-1.5,1.5c-0.3,0.3-0.3,0.6,0,0.6L35.4,66.1z M31.9,70.5v-0.6c-0.6,0-1.5,0.9-2.3,0.9v0.6
			C30.5,72.2,30.8,71.9,31.9,70.5z M215.1,26.8h0.3l-1.5-0.9L215.1,26.8z M207.9,22.7c1.5-0.3,2.3,1.2,3.5,1.5h0.3l-0.9-0.6
			l-2.9-1.5l-3.2-1.5l0.9,0.6L207.9,22.7z M187.8,14.9h-0.3l-3.5-0.6h1.5L187.8,14.9z M193.6,16.9l3.8,1.2
			C196.2,17.4,194.9,17,193.6,16.9z M167.4,16.9c0.3-0.4,0.5-0.9,0.6-1.5h-1.5l-0.9,0.9l1.2,0.9L167.4,16.9z M181.4,17.8
			c0,0.1,0,0.2,0,0.3V17.8z M311.8,170.1H311v-1.2h0.9c0.3,0,0.6-0.9,0.3-1.2c-0.3-0.3-0.3-2-0.9-2.3c-0.4-0.1-0.6-0.5-0.6-0.9
			l0.6-1.2c0-0.2,0-0.4,0-0.6h-0.6l-0.6-0.9c-0.3,0.9-0.6,1.7-1.2,2c0,0.2,0,0.4,0,0.6c0,0.3,0,0.6-0.3,0.6h-0.3
			c-0.1,0.3-0.2,0.6-0.3,0.9c-0.6,0.8-1,1.7-1.2,2.6c-0.1,0.4,0,0.9,0.3,1.2h0.3c-0.3,0.7-0.4,1.5-0.3,2.3v1.2c0,0.5-0.1,1-0.3,1.5
			h-0.3l-1.2,2v1.7c0.1,1.1-0.2,2.3-0.9,3.2H304l-0.6-0.6c-0.5-0.7-0.6-1.6-0.3-2.3c0.3-1.6,0.4-3.3,0.3-5c0-0.3-0.3-0.6-0.3-0.6
			c-0.2,0.3-0.3,0.6-0.3,0.9v1.7c0,0.6-0.3,1.7-0.9,2s-0.3,0.6-0.3,0.9l-0.6,1.7l0.9,1.5c-0.6,0.6-1.2,0.3-1.5-0.3v2.9h0.9v1.2
			c-0.5,1.3-0.8,2.7-0.9,4.1c0,0.4,0,0.8,0,1.2c0,1.3-0.2,2.6-0.6,3.8c-0.1,0.6-0.1,1.2,0,1.7l-0.9,2c-0.2,0.7-0.5,1.4-0.9,2
			l-0.9,1.7l-2.6,7.9c0.9,2.6-1.2,4.4-2.3,6.1c0.3,2.5-0.5,5-2.3,6.7v1.2c0,0.3,0.3,0.6,0.9,0.3l1.2-0.9l0.6-1.2h0.6
			c0.3,0.3,0.6,0.3,1.2-0.3h0.6c0.5,0.4,0.6,1.2,0.3,1.7c-0.2,0.8-0.3,1.5-0.3,2.3c0,0.3,0,0.6,0.3,0.6h0.6c0.3,0.3,0.6,0,0.9-0.9
			l0.6-1.5h0.9c1.2-0.3,1.2-0.3,1.7-1.7l1.5-2.6l0.9-1.7l1.2-2.9c0-1,0.3-2.1,0.9-2.9c0.4-0.5,0.5-1.2,0.3-1.7c0-0.6,0-0.9,0.6-1.7
			l0.9-1.2l1.5-2.9c0.1-0.9,0.3-1.8,0.6-2.6c0.6-1.2,0.9-2.5,0.9-3.8c0.2-0.9,0.5-1.8,0.9-2.6v-1.5c-0.3-0.6-0.3-0.6,0-1.7
			s0.3-0.6,0.6-0.6c0.2,0.2,0.3,0.6,0.3,0.9l0.6-1.5c0.4-0.8,0.6-1.7,0.6-2.6v-0.9c0-0.3,0-0.9-0.3-0.9v1.2c-0.6,0-0.9,0.6-1.5,0.9
			c0.1-0.8,0.2-1.5,0.3-2.3l1.2-0.6c0.5-0.5,0.7-1.1,0.6-1.7c0-0.3,0-0.6,0-0.9c0.4-1.3,0.6-2.7,0.6-4.1v-0.6l0.9-2.9h0.3
			c0.3-0.2,0.4-0.6,0.3-0.9h-0.3c-0.2-0.8,0-1.7,0.6-2.3C314.1,171.7,313.1,170.6,311.8,170.1L311.8,170.1z M26.4,89.7
			c0.1-0.2,0.1-0.4,0-0.6l-0.6-0.6l-0.6,0.6l-0.9,1.7c0,0.9-0.9,1.7-0.9,2.6V94h0.3L26.4,89.7z M306.9,161.9h0.3
			c0.6-1.1,0.8-2.3,0.6-3.5c-0.1-0.6,0.1-1.1,0.6-1.5h0.3v-0.6l-0.6-0.6h-0.3c-0.3,0.3-0.6,0.9-0.9,0.9s-0.3,0.3-0.3,0.9v0.9
			C306.4,159.6,306.5,160.8,306.9,161.9L306.9,161.9z M38.3,262.4c-0.3,0,0,0.6,0,0.9l2.3,2.3H41c-0.6-0.9-0.9-1.7-0.6-2
			c-0.5,0-1-0.2-1.5-0.6L38.3,262.4z M309.5,159.3h0.3c0.1-0.6,0.1-1.2,0-1.7c-0.9,0.3-0.9,0.3-0.9,1.7S309.2,159.6,309.5,159.3
			L309.5,159.3z"/>
		<path id="path11" class="st2" d="M310.7,180.6c0.3-0.4,0.4-1,0.3-1.5c0-0.3-0.3-0.6-0.3-0.3h-0.6v0.6
			C310.1,180.6,310.4,180.9,310.7,180.6L310.7,180.6z M311,156.7h-0.3v1.7C310.9,157.9,311,157.3,311,156.7z M49.7,269.7h-0.6v0.6
			l0.6,0.6h0.6v-0.6L49.7,269.7z M301.9,172.7c0-0.3,0-0.3-0.3-0.3L301.9,172.7z M28.7,251.9l1.5,1.5l-1.2-1.7L28.7,251.9z"/>
		<polygon id="circle13" class="st2" points="30.4,253.6 30.4,253.6 30.4,253.6 		"/>
		<path id="path15" class="st2" d="M28.1,87.7h-0.3v0.6v-0.6H28.1z M270.5,68.4l-0.6-0.9h-0.3L270.5,68.4z M16.8,94.4
			c0.2-0.1,0.3-0.4,0.3-0.6v0.6H16.8z M303.7,176.5v0.3V176.5z M47.7,269.4h-0.3c0.3,0.3,0.6,0,0.3-0.3V269.4z M48.2,271.5h0.3
			l-0.3-0.3V271.5z"/>
	</g>
</g>
<g id="SvgjsG2686" transform="matrix(2.284354285447385,0,0,2.284354285447385,27.980055421585643,-5.609520280720151)" class="st0">
	<path id="path20" class="st3" d="M51.4,43.3l-0.9,12.3c-0.2,5.2,7.6,5.7,7.9,0.6l0.7-12.5C59.4,38.6,51.6,38.1,51.4,43.3z
		 M24.8,27.3L24.8,27.3c0.1,0,59.7-0.9,59.9-0.6c3.7,3.3,2.8,81,0.3,83.2c-1.2,0.9-13.5,1.6-26.8,1.7c-2.4-11.2-0.6-24.2-0.6-24.2
		c0.7-5.2-7.1-6.2-7.7-1.2c0,0.1-1.9,13.2,0.5,25.5c-13.3-0.1-25.3-0.7-26-1.9C22.1,105.8,24.5,27.6,24.8,27.3z"/>
</g>
<g>
	<circle class="st4" cx="154.4" cy="152.4" r="149.9"/>
	<g>
		<g>
			<path class="st5" d="M214.4,190.4c0.1-5.4-2.2-10.8-6.9-14.4l-41.1-31.3v-25.4c16.7-5.7,27.9-23,24.1-42.3
				c-2.8-14.4-14.3-25.9-28.7-28.7c-23.6-4.6-44.3,13.4-44.3,36.2c0,16.2,10.4,29.9,24.9,34.9v25.4l-41.1,31.3
				c-4.8,3.6-7.1,9-6.9,14.4c0,0.2,0,0.5,0,0.7v34.2c0,5.3,2.3,10.5,7,14.1l21.2,16.1l21.2,16.1c3.2,2.4,6.9,3.6,10.7,3.6
				s7.5-1.2,10.7-3.6l21.2-16.1l21.2-16.1c4.6-3.5,7-8.8,7-14.1v-34.2C214.4,190.9,214.4,190.7,214.4,190.4z"/>
			<path class="st5" d="M113,76.2c0.8-2.7,1.7-5.2,2.7-7.8c1.1-2.5,2.2-5,3.6-7.4c1.3-2.4,2.8-4.8,4.3-7.3c-2.5,1.5-4.6,3.6-6.5,5.9
				c-1.8,2.3-3.3,4.9-4.5,7.6c-1.1,2.7-1.9,5.6-2.2,8.5c-0.3,2.9-0.3,5.9,0.4,8.7C111.6,81.6,112.2,78.8,113,76.2z"/>
			<path class="st5" d="M184.5,54.8c1.8,2.1,3.5,4.2,5,6.6c1.5,2.3,2.7,4.8,3.8,7.3s1.9,5.2,2.4,7.8c0.6,2.7,0.9,5.4,1,8.2
				c0.2,5.5-0.5,11.1-2.1,16.6c2.9-5,4.4-10.8,4.7-16.6c0.2-2.9-0.1-5.9-0.5-8.8c-0.5-2.9-1.3-5.8-2.4-8.5c-1.1-2.7-2.5-5.3-4.2-7.8
				c-1.7-2.4-3.6-4.7-5.8-6.7c-4.3-4-9.4-7.1-15-8.6C176.3,47.2,180.8,50.7,184.5,54.8z"/>
		</g>
		<g>
			<ellipse class="st6" cx="154.9" cy="167.1" rx="20.7" ry="18.6"/>
			<path class="st7" d="M94.3,218.8c0,5.3,2.3,10.5,7,14.1l21.2,16.1l21.2,16.1c3.2,2.4,6.9,3.6,10.7,3.6s7.5-1.2,10.7-3.6
				l21.2-16.1l21.2-16.1c4.6-3.5,7-8.8,7-14.1v-34.1c0-5.3-2.3-6-7-9.5L186.3,159L165,142.9c-3.2-2.4-6.9-3.6-10.7-3.6
				s-7.5,1.2-10.7,3.6L122.4,159l-21.2,16.1c-4.6,3.5-7,4.3-7,9.5L94.3,218.8L94.3,218.8z"/>
			<g>
				<path class="st8" d="M154.4,231.6c-3.5,0-6.8-1.1-9.5-3.2l-42.4-32.3c-3.9-3-6.2-7.6-6.2-12.5s2.3-9.5,6.2-12.5l42.4-32.3
					c2.8-2.1,6.1-3.2,9.5-3.2c3.5,0,6.8,1.1,9.5,3.2l42.4,32.3c3.9,3,6.2,7.6,6.2,12.5s-2.3,9.5-6.2,12.5L164,228.4
					C161.2,230.4,157.9,231.6,154.4,231.6z"/>
				<path class="st7" d="M154.4,137.4c3,0,5.9,1,8.4,2.8l42.4,32.3c3.5,2.6,5.4,6.6,5.4,11c0,4.3-2,8.4-5.4,11l-42.4,32.3
					c-2.4,1.8-5.3,2.8-8.4,2.8c-3,0-5.9-1-8.4-2.8l-42.4-32.3c-3.5-2.6-5.4-6.6-5.4-11c0-4.3,2-8.4,5.4-11l42.4-32.3
					C148.5,138.4,151.4,137.4,154.4,137.4 M154.4,133.6c-3.8,0-7.5,1.2-10.7,3.6l-42.4,32.3c-9.3,7.1-9.3,21.1,0,28.1l42.4,32.3
					c3.2,2.4,6.9,3.6,10.7,3.6s7.6-1.2,10.7-3.6l42.4-32.3c9.3-7.1,9.3-21.1,0-28.1l-42.4-32.3C162,134.8,158.2,133.6,154.4,133.6
					L154.4,133.6z"/>
			</g>
			<g class="st9">
				<path class="st8" d="M154.4,225.6c-2.1,0-4.2-0.7-5.9-2l-42.4-32.3c-2.4-1.9-3.8-4.7-3.8-7.7c0-3.1,1.4-5.9,3.8-7.7l42.4-32.3
					c1.7-1.3,3.7-2,5.9-2c2.1,0,4.2,0.7,5.9,2l42.4,32.3c2.4,1.9,3.8,4.7,3.8,7.7c0,3.1-1.4,5.9-3.8,7.7l-42.4,32.3
					C158.6,224.9,156.6,225.6,154.4,225.6z"/>
			</g>
			<g>
				<path class="st4" d="M128.4,158.9c5.3-4.2,10.6-8.4,15.9-12.6l4-3.1c1.4-1.1,3.1-1.8,4.9-2c1.8-0.2,3.6,0,5.3,0.7
					c0.8,0.3,1.6,0.8,2.3,1.3l2,1.5c10.9,8.1,21.6,16.3,32.4,24.5l8.1,6.2c1.4,1.1,2.6,2.6,3.3,4.3s0.9,3.6,0.7,5.4
					c-0.2,1.8-1,3.5-2.1,5c-0.6,0.7-1.2,1.4-1.9,1.9l-2,1.5c-2.7,2-5.4,4.1-8.1,6.1l-16.3,12.1c-5.5,4-10.9,8-16.4,12
					c5.3-4.2,10.6-8.4,15.9-12.6l16-12.5c2.7-2.1,5.3-4.2,8-6.2l2-1.5c0.6-0.5,1.2-1,1.7-1.7c1-1.2,1.6-2.7,1.8-4.3
					c0.4-3.1-0.9-6.4-3.4-8.3l-8.1-6.1c-10.7-8.3-21.5-16.5-32.2-24.8l-2-1.6c-0.6-0.5-1.3-0.9-2-1.2c-1.5-0.6-3.1-0.9-4.7-0.7
					c-1.6,0.2-3.1,0.8-4.4,1.8l-4.1,3C139.3,150.9,133.9,154.9,128.4,158.9z"/>
			</g>
			<g>
				<g>
					<path class="st10" d="M188.7,192.9c0,4.6-4.2,8.3-9.3,8.3s-9.3-3.7-9.3-8.3v-3.1c0-4.6,4.2-8.3,9.3-8.3s9.3,3.7,9.3,8.3V192.9z
						"/>
					<ellipse class="st10" cx="179.4" cy="189.9" rx="9.3" ry="8.7"/>
				</g>
				<g>
					<path class="st10" d="M138.5,192.9c0,4.6-4.2,8.3-9.3,8.3c-5.1,0-9.3-3.7-9.3-8.3v-3.1c0-4.6,4.2-8.3,9.3-8.3s9.3,3.7,9.3,8.3
						V192.9z"/>
					<ellipse class="st10" cx="129.2" cy="189.9" rx="9.3" ry="8.7"/>
				</g>
			</g>
			<path class="st6" d="M166.9,167.1c0,11.6-24,11.6-24,0v-70h24V167.1z"/>
			<g>
				<path class="st7" d="M110.9,77.9c-0.7-2.9-0.7-5.8-0.4-8.7c0.3-2.9,1.1-5.8,2.2-8.5s2.6-5.3,4.5-7.6c1.8-2.3,4-4.3,6.5-5.9
					c-1.5,2.5-3,4.9-4.3,7.3c-1.3,2.4-2.5,4.9-3.6,7.4c-1.1,2.5-2,5.1-2.7,7.8C112.2,72.2,111.6,75,110.9,77.9z"/>
				<path class="st7" d="M171.4,37.8c5.5,1.6,10.7,4.6,15,8.6c2.2,2,4.1,4.3,5.8,6.7s3.1,5.1,4.2,7.8c1.1,2.7,1.9,5.6,2.4,8.5
					s0.7,5.9,0.5,8.8c-0.3,5.9-1.8,11.6-4.7,16.6c1.6-5.5,2.3-11.1,2.1-16.6c-0.1-2.8-0.4-5.5-1-8.2s-1.4-5.3-2.4-7.8
					c-1-2.5-2.3-5-3.8-7.3c-1.4-2.3-3.2-4.5-5-6.6C180.8,44.1,176.3,40.6,171.4,37.8z"/>
			</g>
			<circle class="st10" cx="154.3" cy="78.1" r="36.6"/>
			<path class="st11" d="M154.3,123.2c-2.6,0-5.2-0.3-7.6-0.8v43.3c0,3.2,4.6,4.3,7.6,4.3c3.1,0,7.6-1.1,7.6-4.3v-43.3
				C159.5,123,156.9,123.2,154.3,123.2z"/>
			<path class="st4" d="M120,77.9c-0.1-3.4,0.2-6.8,1.1-10.1c0.9-3.3,2.3-6.5,4.1-9.4c1.9-2.9,4.2-5.5,6.8-7.8
				c2.7-2.2,5.6-4.1,8.8-5.5s6.6-2.2,10.1-2.7c3.5-0.3,7-0.2,10.5,0.4c3.4,0.7,6.8,1.9,9.9,3.5c3.1,1.7,5.9,3.8,8.5,6.2
				c2.4,2.5,4.5,5.4,6.2,8.5c1.6,3.1,2.8,6.5,3.5,9.9c0.6,3.5,0.7,7,0.4,10.5c-0.4,3.5-1.3,6.9-2.7,10.1s-3.3,6.2-5.5,8.8
				c-2.3,2.6-4.9,4.9-7.8,6.8c-2.9,1.8-6.1,3.2-9.4,4.1c-3.3,0.9-6.7,1.2-10.1,1.1c3.4-0.2,6.7-0.8,9.9-1.9c3.1-1.1,6.1-2.6,8.8-4.5
				s5.1-4.2,7.1-6.8c2-2.6,3.6-5.5,4.9-8.5c1.2-3.1,1.9-6.3,2.2-9.5c0.2-3.2,0.1-6.5-0.6-9.7c-0.7-3.2-1.8-6.2-3.3-9.1
				c-1.6-2.8-3.5-5.4-5.8-7.8c-2.3-2.3-4.9-4.2-7.8-5.8c-2.9-1.5-5.9-2.6-9.1-3.3c-3.2-0.6-6.5-0.8-9.7-0.6
				c-3.2,0.4-6.4,1.1-9.5,2.2c-3,1.2-5.9,2.9-8.5,4.9c-2.6,2.1-4.8,4.5-6.8,7.1c-1.9,2.7-3.4,5.7-4.5,8.8
				C120.8,71.2,120.3,74.5,120,77.9z"/>
			<g>
				<ellipse class="st12" cx="164.8" cy="67.4" rx="14.3" ry="14.3"/>
			</g>
			<g class="st9">
				<g>
					<path class="st12" d="M179.7,194.9c-3.3,0-6.1-2.3-6.1-5.1s2.7-5.1,6.1-5.1c3.3,0,6.1,2.3,6.1,5.1S183,194.9,179.7,194.9z"/>
				</g>
				<g>
					<path class="st12" d="M129.2,194.9c-3.3,0-6.1-2.3-6.1-5.1s2.7-5.1,6.1-5.1c3.3,0,6.1,2.3,6.1,5.1S132.6,194.9,129.2,194.9z"/>
				</g>
			</g>
			<g>
				<g>
					<path class="st4" d="M173.6,189.8c-0.2-1.1,0.2-2.3,0.9-3.2c0.7-1,1.7-1.7,2.8-2.1c2.2-0.9,4.9-0.5,6.9,1
						c1,0.8,1.8,1.8,2.1,3.1s0.1,2.6-0.6,3.7c-1.3,2.1-3.9,3-6.1,2.7c2.2-0.3,4.1-1.5,5-3.3c0.9-1.7,0.2-3.8-1.4-4.9
						c-1.5-1.2-3.6-1.5-5.6-1C175.8,186.2,174,187.6,173.6,189.8z"/>
				</g>
				<g>
					<path class="st4" d="M123.2,189.8c-0.4-1.5,0.4-3.2,1.6-4.2c1.2-1.1,2.9-1.6,4.5-1.6c1.6,0,3.3,0.6,4.5,1.6s1.9,2.7,1.6,4.2
						c-0.3-1.5-1.2-2.5-2.3-3.3c-1.1-0.7-2.4-1-3.7-1s-2.6,0.3-3.7,1C124.4,187.2,123.5,188.4,123.2,189.8z"/>
				</g>
			</g>
		</g>
	</g>
</g>
</svg>
